<svg xmlns="http://www.w3.org/2000/svg" width="320" height="320" viewBox="0 0 320 320">
  <rect width="320" height="320" fill="#e7efeb"/>
  <path d="M72 246H250" stroke="#254b40" stroke-opacity=".16" stroke-width="2"/>
  <g transform="translate(76 66)"><svg xmlns="http://www.w3.org/2000/svg" width="168" height="168" viewBox="0 0 24 24" fill="none" stroke="#254b40" stroke-width="1.4" stroke-linecap="round" stroke-linejoin="round" class="lucide lucide-shield-check" aria-hidden="true"><path d="M20 13c0 5-3.5 7.5-7.66 8.95a1 1 0 0 1-.67-.01C7.5 20.5 4 18 4 13V6a1 1 0 0 1 1-1c2 0 4.5-1.2 6.24-2.72a1.17 1.17 0 0 1 1.52 0C14.51 3.81 17 5 19 5a1 1 0 0 1 1 1z"></path><path d="m9 12 2 2 4-4"></path></svg></g>
  <rect x="211" y="204" width="62" height="62" rx="8" fill="#e7efeb" stroke="#8262a7" stroke-width="2"/>
  <g transform="translate(224 217)"><svg xmlns="http://www.w3.org/2000/svg" width="36" height="36" viewBox="0 0 24 24" fill="none" stroke="#8262a7" stroke-width="1.8" stroke-linecap="round" stroke-linejoin="round" class="lucide lucide-lock-keyhole" aria-hidden="true"><circle cx="12" cy="16" r="1"></circle><rect x="3" y="10" width="18" height="12" rx="2"></rect><path d="M7 10V7a5 5 0 0 1 10 0v3"></path></svg></g>
</svg>
