<svg xmlns="http://www.w3.org/2000/svg" width="320" height="320" viewBox="0 0 320 320">
  <rect width="320" height="320" fill="#e5f0f4"/>
  <path d="M72 246H250" stroke="#2c596d" stroke-opacity=".16" stroke-width="2"/>
  <g transform="translate(76 66)"><svg xmlns="http://www.w3.org/2000/svg" width="168" height="168" viewBox="0 0 24 24" fill="none" stroke="#2c596d" stroke-width="1.4" stroke-linecap="round" stroke-linejoin="round" class="lucide lucide-radar" aria-hidden="true"><path d="M19.07 4.93A10 10 0 0 0 6.99 3.34"></path><path d="M4 6h.01"></path><path d="M2.29 9.62A10 10 0 1 0 21.31 8.35"></path><path d="M16.24 7.76A6 6 0 1 0 8.23 16.67"></path><path d="M12 18h.01"></path><path d="M17.99 11.66A6 6 0 0 1 15.77 16.67"></path><circle cx="12" cy="12" r="2"></circle><path d="m13.41 10.59 5.66-5.66"></path></svg></g>
  <rect x="211" y="204" width="62" height="62" rx="8" fill="#e5f0f4" stroke="#bd624b" stroke-width="2"/>
  <g transform="translate(224 217)"><svg xmlns="http://www.w3.org/2000/svg" width="36" height="36" viewBox="0 0 24 24" fill="none" stroke="#bd624b" stroke-width="1.8" stroke-linecap="round" stroke-linejoin="round" class="lucide lucide-square-code lucide-code-square" aria-hidden="true"><path d="m10 9-3 3 3 3"></path><path d="m14 15 3-3-3-3"></path><rect x="3" y="3" width="18" height="18" rx="2"></rect></svg></g>
</svg>
