<svg xmlns="http://www.w3.org/2000/svg" width="1200" height="630" viewBox="0 0 1200 630" role="img" aria-labelledby="title desc">
  <title id="title">Emilo Labs social preview</title>
  <desc id="desc">Emilo Labs at the Core of a Connected Future.</desc>
  <defs>
    <radialGradient id="blueGlow" cx="50%" cy="48%" r="58%">
      <stop offset="0" stop-color="#173f6d" stop-opacity="0.9" />
      <stop offset="0.48" stop-color="#08182d" stop-opacity="0.74" />
      <stop offset="1" stop-color="#05070c" stop-opacity="1" />
    </radialGradient>
    <linearGradient id="headline" x1="0" x2="1" y1="0" y2="1">
      <stop offset="0" stop-color="#ffffff" />
      <stop offset="0.56" stop-color="#dce9ff" />
      <stop offset="1" stop-color="#7bc2ff" />
    </linearGradient>
    <filter id="softLight" x="-30%" y="-30%" width="160%" height="160%">
      <feGaussianBlur stdDeviation="5" />
    </filter>
  </defs>
  <rect width="1200" height="630" fill="#05070c" />
  <rect width="1200" height="630" fill="url(#blueGlow)" opacity="0.92" />
  <g opacity="0.24">
    <path d="M64 116H1136M64 214H1136M64 312H1136M64 410H1136M64 508H1136" stroke="#74bcff" stroke-width="1" />
    <path d="M120 70V560M270 70V560M420 70V560M570 70V560M720 70V560M870 70V560M1020 70V560" stroke="#74bcff" stroke-width="1" />
  </g>
  <g transform="translate(712 314)" fill="none" stroke="#48a8ff" stroke-width="1.3" opacity="0.36">
    <circle r="178" />
    <ellipse rx="178" ry="56" />
    <ellipse rx="72" ry="178" />
    <ellipse rx="178" ry="56" transform="rotate(58)" />
    <ellipse rx="178" ry="56" transform="rotate(122)" />
  </g>
  <g fill="#7bc2ff" opacity="0.74" filter="url(#softLight)">
    <circle cx="645" cy="184" r="3" />
    <circle cx="792" cy="214" r="3" />
    <circle cx="870" cy="338" r="3" />
    <circle cx="718" cy="454" r="3" />
    <circle cx="566" cy="330" r="3" />
  </g>
  <image href="emilo-labs-logo.svg" x="68" y="82" width="430" height="430" preserveAspectRatio="xMidYMid meet" />
  <g transform="translate(538 180)">
    <text x="0" y="0" fill="#7bc2ff" font-family="IBM Plex Mono, ui-monospace, monospace" font-size="20" font-weight="600">EMILO LABS</text>
    <text x="0" y="82" fill="url(#headline)" font-family="IBM Plex Sans, Inter, Arial, sans-serif" font-size="68" font-weight="700">At the Core of a</text>
    <text x="0" y="166" fill="url(#headline)" font-family="IBM Plex Sans, Inter, Arial, sans-serif" font-size="68" font-weight="700">Connected Future</text>
    <text x="0" y="238" fill="#c4d0e6" font-family="IBM Plex Sans, Inter, Arial, sans-serif" font-size="26">Identity. Privacy. Security. Intelligence.</text>
    <text x="0" y="280" fill="#c4d0e6" font-family="IBM Plex Sans, Inter, Arial, sans-serif" font-size="26">Finance. Coordination infrastructure.</text>
  </g>
</svg>
